<?xml version="1.0" standalone="no"?>
<!DOCTYPE svg PUBLIC "-//W3C//DTD SVG 20010904//EN"
 "http://www.w3.org/TR/2001/REC-SVG-20010904/DTD/svg10.dtd">
<svg version="1.0" xmlns="http://www.w3.org/2000/svg"
 width="116.000000pt" height="116.000000pt" viewBox="0 0 116.000000 116.000000"
 preserveAspectRatio="xMidYMid meet">
<metadata>
Created by potrace 1.11, written by Peter Selinger 2001-2013
</metadata>
<g transform="translate(0.000000,116.000000) scale(0.100000,-0.100000)"
fill="#000000" stroke="none">
<path d="M347 1142 c-49 -54 -64 -168 -40 -319 7 -48 14 -96 16 -107 1 -13
-11 -26 -43 -43 -175 -96 -280 -200 -280 -276 0 -35 34 -73 78 -88 20 -7 78
-13 127 -13 79 -1 109 2 200 18 23 4 23 8 3 93 -33 139 -5 263 79 345 40 39
170 111 185 102 34 -21 -35 105 -106 192 -80 100 -177 142 -219 96z"/>
<path d="M868 865 c-2 -2 -25 -6 -53 -10 -191 -25 -328 -111 -369 -232 -49
-142 14 -353 153 -514 51 -60 124 -109 160 -109 l25 0 -22 20 c-24 23 -37 77
-28 116 8 31 42 63 93 90 60 30 101 63 124 100 25 41 18 69 -21 82 -30 11
-131 9 -165 -3 -41 -14 29 37 100 72 147 74 264 177 287 255 17 56 -8 100 -65
118 -36 12 -210 23 -219 15z"/>
</g>
</svg>
